<svg id="visual" viewBox="0 0 960 400" width="960" height="400" xmlns="http://www.w3.org/2000/svg" xmlns:xlink="http://www.w3.org/1999/xlink" version="1.1"><rect x="0" y="0" width="960" height="400" fill="#001220"></rect><path d="M0 157L22.8 157.3C45.7 157.7 91.3 158.3 137 158.8C182.7 159.3 228.3 159.7 274 159.2C319.7 158.7 365.3 157.3 411.2 147.3C457 137.3 503 118.7 548.8 110.2C594.7 101.7 640.3 103.3 686 111.3C731.7 119.3 777.3 133.7 823 134C868.7 134.3 914.3 120.7 937.2 113.8L960 107L960 0L937.2 0C914.3 0 868.7 0 823 0C777.3 0 731.7 0 686 0C640.3 0 594.7 0 548.8 0C503 0 457 0 411.2 0C365.3 0 319.7 0 274 0C228.3 0 182.7 0 137 0C91.3 0 45.7 0 22.8 0L0 0Z" fill="#fa7268"></path><path d="M0 104L22.8 101.8C45.7 99.7 91.3 95.3 137 96.8C182.7 98.3 228.3 105.7 274 111.8C319.7 118 365.3 123 411.2 122.8C457 122.7 503 117.3 548.8 115.7C594.7 114 640.3 116 686 115.8C731.7 115.7 777.3 113.3 823 106.8C868.7 100.3 914.3 89.7 937.2 84.3L960 79L960 0L937.2 0C914.3 0 868.7 0 823 0C777.3 0 731.7 0 686 0C640.3 0 594.7 0 548.8 0C503 0 457 0 411.2 0C365.3 0 319.7 0 274 0C228.3 0 182.7 0 137 0C91.3 0 45.7 0 22.8 0L0 0Z" fill="#ef5f67"></path><path d="M0 66L22.8 71.5C45.7 77 91.3 88 137 90.5C182.7 93 228.3 87 274 85.2C319.7 83.3 365.3 85.7 411.2 89.7C457 93.7 503 99.3 548.8 99.2C594.7 99 640.3 93 686 90.2C731.7 87.3 777.3 87.7 823 84.5C868.7 81.3 914.3 74.7 937.2 71.3L960 68L960 0L937.2 0C914.3 0 868.7 0 823 0C777.3 0 731.7 0 686 0C640.3 0 594.7 0 548.8 0C503 0 457 0 411.2 0C365.3 0 319.7 0 274 0C228.3 0 182.7 0 137 0C91.3 0 45.7 0 22.8 0L0 0Z" fill="#e34c67"></path><path d="M0 64L22.8 61.8C45.7 59.7 91.3 55.3 137 56.2C182.7 57 228.3 63 274 65.3C319.7 67.7 365.3 66.3 411.2 61.8C457 57.3 503 49.7 548.8 51.7C594.7 53.7 640.3 65.3 686 69.8C731.7 74.3 777.3 71.7 823 70C868.7 68.3 914.3 67.7 937.2 67.3L960 67L960 0L937.2 0C914.3 0 868.7 0 823 0C777.3 0 731.7 0 686 0C640.3 0 594.7 0 548.8 0C503 0 457 0 411.2 0C365.3 0 319.7 0 274 0C228.3 0 182.7 0 137 0C91.3 0 45.7 0 22.8 0L0 0Z" fill="#d53867"></path><path d="M0 18L22.8 18.8C45.7 19.7 91.3 21.3 137 25.7C182.7 30 228.3 37 274 39.7C319.7 42.3 365.3 40.7 411.2 36C457 31.3 503 23.7 548.8 21C594.7 18.3 640.3 20.7 686 23.2C731.7 25.7 777.3 28.3 823 27.5C868.7 26.7 914.3 22.3 937.2 20.2L960 18L960 0L937.2 0C914.3 0 868.7 0 823 0C777.3 0 731.7 0 686 0C640.3 0 594.7 0 548.8 0C503 0 457 0 411.2 0C365.3 0 319.7 0 274 0C228.3 0 182.7 0 137 0C91.3 0 45.7 0 22.8 0L0 0Z" fill="#c62368"></path></svg>