<svg id="visual" viewBox="0 0 960 300" width="960" height="300" xmlns="http://www.w3.org/2000/svg" xmlns:xlink="http://www.w3.org/1999/xlink" version="1.1"><rect x="0" y="0" width="960" height="300" fill="#ff0066"></rect><path d="M0 117L22.8 117.3C45.7 117.7 91.3 118.3 137 118.8C182.7 119.3 228.3 119.7 274 119.3C319.7 119 365.3 118 411.2 110.3C457 102.7 503 88.3 548.8 81.8C594.7 75.3 640.3 76.7 686 82.8C731.7 89 777.3 100 823 100.3C868.7 100.7 914.3 90.3 937.2 85.2L960 80L960 0L937.2 0C914.3 0 868.7 0 823 0C777.3 0 731.7 0 686 0C640.3 0 594.7 0 548.8 0C503 0 457 0 411.2 0C365.3 0 319.7 0 274 0C228.3 0 182.7 0 137 0C91.3 0 45.7 0 22.8 0L0 0Z" fill="#6abee1"></path><path d="M0 78L22.8 76.3C45.7 74.7 91.3 71.3 137 72.5C182.7 73.7 228.3 79.3 274 84C319.7 88.7 365.3 92.3 411.2 92.2C457 92 503 88 548.8 86.7C594.7 85.3 640.3 86.7 686 86.5C731.7 86.3 777.3 84.7 823 79.8C868.7 75 914.3 67 937.2 63L960 59L960 0L937.2 0C914.3 0 868.7 0 823 0C777.3 0 731.7 0 686 0C640.3 0 594.7 0 548.8 0C503 0 457 0 411.2 0C365.3 0 319.7 0 274 0C228.3 0 182.7 0 137 0C91.3 0 45.7 0 22.8 0L0 0Z" fill="#48afe3"></path><path d="M0 50L22.8 54C45.7 58 91.3 66 137 67.8C182.7 69.7 228.3 65.3 274 64C319.7 62.7 365.3 64.3 411.2 67.2C457 70 503 74 548.8 73.8C594.7 73.7 640.3 69.3 686 67.3C731.7 65.3 777.3 65.7 823 63.2C868.7 60.7 914.3 55.3 937.2 52.7L960 50L960 0L937.2 0C914.3 0 868.7 0 823 0C777.3 0 731.7 0 686 0C640.3 0 594.7 0 548.8 0C503 0 457 0 411.2 0C365.3 0 319.7 0 274 0C228.3 0 182.7 0 137 0C91.3 0 45.7 0 22.8 0L0 0Z" fill="#279ee4"></path><path d="M0 48L22.8 46.3C45.7 44.7 91.3 41.3 137 42C182.7 42.7 228.3 47.3 274 49.2C319.7 51 365.3 50 411.2 46.5C457 43 503 37 548.8 38.3C594.7 39.7 640.3 48.3 686 51.7C731.7 55 777.3 53 823 51.8C868.7 50.7 914.3 50.3 937.2 50.2L960 50L960 0L937.2 0C914.3 0 868.7 0 823 0C777.3 0 731.7 0 686 0C640.3 0 594.7 0 548.8 0C503 0 457 0 411.2 0C365.3 0 319.7 0 274 0C228.3 0 182.7 0 137 0C91.3 0 45.7 0 22.8 0L0 0Z" fill="#198be3"></path><path d="M0 13L22.8 13.7C45.7 14.3 91.3 15.7 137 19C182.7 22.3 228.3 27.7 274 29.7C319.7 31.7 365.3 30.3 411.2 26.8C457 23.3 503 17.7 548.8 15.7C594.7 13.7 640.3 15.3 686 17.2C731.7 19 777.3 21 823 20.3C868.7 19.7 914.3 16.3 937.2 14.7L960 13L960 0L937.2 0C914.3 0 868.7 0 823 0C777.3 0 731.7 0 686 0C640.3 0 594.7 0 548.8 0C503 0 457 0 411.2 0C365.3 0 319.7 0 274 0C228.3 0 182.7 0 137 0C91.3 0 45.7 0 22.8 0L0 0Z" fill="#3177de"></path></svg>